<?xml version="1.0" encoding="utf-8"?>
<!-- Generator: Adobe Illustrator 26.0.2, SVG Export Plug-In . SVG Version: 6.00 Build 0)  -->
<svg version="1.1" id="Layer_1" xmlns="http://www.w3.org/2000/svg" xmlns:xlink="http://www.w3.org/1999/xlink" x="0px" y="0px"
	 viewBox="0 0 150 150" style="enable-background:new 0 0 150 150;" xml:space="preserve">
<style type="text/css">
	.st0{fill:#FFFFFF;}
	.st1{fill:#231F20;}
	.st2{fill:#E6E9EE;}
	.st3{fill:#84DBFF;}
	.st4{fill:#FF7058;}
	.st5{fill:#FFD05B;}
</style>
<g>
	<rect x="27.2" y="129.9" class="st0" width="57.4" height="8.2"/>
	<polygon class="st0" points="84.6,138.1 94.2,134 84.6,129.9 	"/>
	<path class="st0" d="M18.1,136.8v-5.7c0-0.7,0.6-1.2,1.2-1.2h7.9v8.2h-7.9C18.6,138.1,18.1,137.5,18.1,136.8z"/>
	<path class="st1" d="M94.6,133.2l-9.6-4.1c-0.1-0.1-0.3-0.1-0.4-0.1l0,0H19.3c-1.2,0-2.1,0.9-2.1,2.1v5.7c0,1.2,0.9,2.1,2.1,2.1
		h65.2l0,0c0,0,0,0,0.1,0s0.2,0,0.3-0.1l9.6-4.1c0.3-0.1,0.5-0.4,0.5-0.8S94.9,133.3,94.6,133.2z M83.7,130.7v2.4H28.1v-2.4H83.7
		L83.7,130.7z M26.3,137.2h-7c-0.2,0-0.4-0.2-0.4-0.4v-5.7c0-0.2,0.2-0.4,0.4-0.4h7V137.2z M28.1,134.8h55.6v2.4H28.1V134.8z
		 M85.5,136.7v-5.6L92,134L85.5,136.7z"/>
	<g>
		<g>
			<path class="st1" d="M140.5,14.7c-0.2,0-0.4-0.1-0.6-0.3c-0.3-0.3-0.3-0.9,0-1.2l1.5-1.5c0.3-0.3,0.9-0.3,1.2,0s0.3,0.9,0,1.2
				l-1.5,1.5C140.9,14.6,140.7,14.7,140.5,14.7z"/>
		</g>
		<g>
			<path class="st1" d="M135.8,19.3c-0.2,0-0.4-0.1-0.6-0.3c-0.3-0.3-0.3-0.9,0-1.2l1.5-1.5c0.3-0.3,0.9-0.3,1.2,0
				c0.3,0.3,0.3,0.9,0,1.2l-1.5,1.5C136.2,19.2,136,19.3,135.8,19.3z"/>
		</g>
		<g>
			<path class="st1" d="M141.9,19.3c-0.2,0-0.4-0.1-0.6-0.3l-1.5-1.5c-0.3-0.3-0.3-0.9,0-1.2c0.3-0.3,0.9-0.3,1.2,0l1.5,1.5
				c0.3,0.3,0.3,0.9,0,1.2C142.4,19.2,142.2,19.3,141.9,19.3z"/>
		</g>
		<g>
			<path class="st1" d="M137.3,14.7c-0.2,0-0.4-0.1-0.6-0.3l-1.5-1.5c-0.3-0.3-0.3-0.9,0-1.2s0.9-0.3,1.2,0l1.5,1.5
				c0.3,0.3,0.3,0.9,0,1.2C137.7,14.6,137.5,14.7,137.3,14.7z"/>
		</g>
	</g>
	<g>
		<g>
			<path class="st1" d="M140.5,112.9c-0.2,0-0.4-0.1-0.6-0.3c-0.3-0.3-0.3-0.9,0-1.2l1.5-1.5c0.3-0.3,0.9-0.3,1.2,0s0.3,0.9,0,1.2
				l-1.5,1.5C140.9,112.9,140.7,112.9,140.5,112.9z"/>
		</g>
		<g>
			<path class="st1" d="M135.8,117.6c-0.2,0-0.4-0.1-0.6-0.3c-0.3-0.3-0.3-0.9,0-1.2l1.5-1.5c0.3-0.3,0.9-0.3,1.2,0s0.3,0.9,0,1.2
				l-1.5,1.5C136.2,117.5,136,117.6,135.8,117.6z"/>
		</g>
		<g>
			<path class="st1" d="M141.9,117.6c-0.2,0-0.4-0.1-0.6-0.3l-1.5-1.5c-0.3-0.3-0.3-0.9,0-1.2c0.3-0.3,0.9-0.3,1.2,0l1.5,1.5
				c0.3,0.3,0.3,0.9,0,1.2C142.4,117.5,142.2,117.6,141.9,117.6z"/>
		</g>
		<g>
			<path class="st1" d="M137.3,112.9c-0.2,0-0.4-0.1-0.6-0.3l-1.5-1.5c-0.3-0.3-0.3-0.9,0-1.2c0.3-0.3,0.9-0.3,1.2,0l1.5,1.5
				c0.3,0.3,0.3,0.9,0,1.2C137.7,112.9,137.5,112.9,137.3,112.9z"/>
		</g>
	</g>
	<g>
		<g>
			<path class="st1" d="M5.9,19.9c-0.2,0-0.4-0.1-0.6-0.3c-0.3-0.3-0.3-0.9,0-1.2l1.5-1.5c0.3-0.3,0.9-0.3,1.2,0
				c0.3,0.3,0.3,0.9,0,1.2l-1.5,1.5C6.4,19.8,6.2,19.9,5.9,19.9z"/>
		</g>
		<g>
			<path class="st1" d="M1.3,24.6c-0.2,0-0.4-0.1-0.6-0.3c-0.3-0.3-0.3-0.9,0-1.2l1.5-1.5c0.3-0.3,0.9-0.3,1.2,0s0.3,0.9,0,1.2
				l-1.5,1.5C1.7,24.5,1.5,24.6,1.3,24.6z"/>
		</g>
		<g>
			<path class="st1" d="M7.4,24.6c-0.2,0-0.4-0.1-0.6-0.3l-1.5-1.5C5,22.5,5,22,5.3,21.6s0.9-0.3,1.2,0L8,23.1
				c0.3,0.3,0.3,0.9,0,1.2C7.9,24.5,7.6,24.6,7.4,24.6z"/>
		</g>
		<g>
			<path class="st1" d="M2.8,19.9c-0.2,0-0.4-0.1-0.6-0.3l-1.5-1.5c-0.3-0.3-0.3-0.9,0-1.2c0.3-0.3,0.9-0.3,1.2,0l1.5,1.5
				c0.3,0.3,0.3,0.9,0,1.2C3.2,19.8,3,19.9,2.8,19.9z"/>
		</g>
	</g>
	<path class="st0" d="M108.1,5.5l4.6-4.6v108.6c0,5.5-4.5,10-10,10H10.8c5.5,0,10-4.5,10-10V0.9l0,0l4.6,4.6L30,0.9l4.6,4.6l4.6-4.6
		l4.6,4.6l4.6-4.6L53,5.5l4.6-4.6l4.6,4.6l4.6-4.6l4.6,4.6L76,0.9l4.6,4.6l4.6-4.6l4.6,4.6l4.6-4.6L99,5.5l4.6-4.6L108.1,5.5z"/>
	<path class="st0" d="M0.9,42.4v67c0,5.5,4.5,10,10,10s10-4.5,10-10v-67H0.9z"/>
	<g>
		<path class="st2" d="M10.8,115.9c-3.6,0-6.5-2.9-6.5-6.5V45.9h13v63.5C17.3,113,14.4,115.9,10.8,115.9z"/>
	</g>
	<g>
		<rect x="56.2" y="50.8" class="st1" width="21.5" height="1.7"/>
	</g>
	<g>
		<rect x="56.2" y="55.3" class="st1" width="21.5" height="1.7"/>
	</g>
	<g>
		<rect x="56.2" y="59.8" class="st1" width="21.5" height="1.7"/>
	</g>
	<g>
		<path class="st1" d="M91.6,66.5h-1.2v-1.7h1.2V66.5z M88.1,66.5h-1.2v-1.7h1.2V66.5z M84.6,66.5h-1.2v-1.7h1.2V66.5z M81.1,66.5
			H80v-1.7h1.2L81.1,66.5L81.1,66.5z M77.7,66.5h-1.2v-1.7h1.2V66.5z M74.2,66.5H73v-1.7h1.2V66.5z M70.7,66.5h-1.2v-1.7h1.2V66.5z
			 M67.2,66.5H66v-1.7h1.2V66.5z M63.8,66.5h-1.2v-1.7h1.2V66.5z M60.3,66.5h-1.2v-1.7h1.2V66.5z M56.8,66.5h-1.2v-1.7h1.2V66.5z
			 M53.3,66.5h-1.2v-1.7h1.2V66.5z M49.9,66.5h-1.2v-1.7h1.2V66.5z M46.4,66.5h-1.2v-1.7h1.2V66.5z M42.9,66.5h-1.2v-1.7h1.2V66.5z
			 M39.5,66.5h-1.2v-1.7h1.2V66.5z M36,66.5h-1.2v-1.7H36V66.5z M32.5,66.5h-1.2v-1.7h1.2V66.5z M29,66.5h-1.2v-1.7H29V66.5z"/>
	</g>
	<g>
		<rect x="27.9" y="21.5" class="st1" width="78" height="1.7"/>
	</g>
	<g>
		<rect x="56.2" y="69.8" class="st1" width="21.5" height="1.7"/>
	</g>
	<g>
		<rect x="56.2" y="74.3" class="st1" width="21.5" height="1.7"/>
	</g>
	<g>
		<rect x="56.2" y="78.8" class="st1" width="21.5" height="1.7"/>
	</g>
	<g>
		<rect x="84.4" y="28.4" class="st1" width="21.5" height="1.7"/>
	</g>
	<g>
		<rect x="84.4" y="32.9" class="st1" width="21.5" height="1.7"/>
	</g>
	<g>
		<rect x="84.4" y="37.4" class="st1" width="21.5" height="1.7"/>
	</g>
	<g>
		<rect x="84.4" y="41.9" class="st1" width="21.5" height="1.7"/>
	</g>
	<g>
		<rect x="84.4" y="46.3" class="st1" width="21.5" height="1.7"/>
	</g>
	<g>
		<rect x="28.1" y="50.8" class="st1" width="21" height="1.7"/>
	</g>
	<g>
		<rect x="28.1" y="55.3" class="st1" width="21" height="1.7"/>
	</g>
	<g>
		<rect x="28.1" y="59.8" class="st1" width="21" height="1.7"/>
	</g>
	<g>
		<rect x="28.1" y="69.8" class="st1" width="21" height="1.7"/>
	</g>
	<g>
		<rect x="28.1" y="74.3" class="st1" width="21" height="1.7"/>
	</g>
	<g>
		<rect x="28.1" y="78.8" class="st1" width="21" height="1.7"/>
	</g>
	<g>
		<rect x="28.1" y="83.2" class="st1" width="21" height="1.7"/>
	</g>
	<g>
		<rect x="28.1" y="87.7" class="st1" width="21" height="1.7"/>
	</g>
	<g>
		<rect x="28.1" y="92.2" class="st1" width="21" height="1.7"/>
	</g>
	<g>
		<rect x="28.1" y="96.7" class="st1" width="21" height="1.7"/>
	</g>
	<g>
		<rect x="28.1" y="101.2" class="st1" width="21" height="1.7"/>
	</g>
	<g>
		<rect x="27.4" y="28.5" class="st3" width="51" height="18.6"/>
	</g>
	<g>
		<rect x="40.5" y="12.9" class="st2" width="51" height="5"/>
	</g>
	<g>
		<rect x="56.2" y="84.1" class="st4" width="49.8" height="18"/>
	</g>
	<circle class="st0" cx="121.9" cy="74" r="27.2"/>
	<circle class="st3" cx="121.9" cy="74" r="22"/>
	<g>
		<path class="st3" d="M105.5,74c0-9.1,7.4-16.5,16.5-16.5"/>
		<path class="st0" d="M109,62.5c-0.4-0.4-0.4-0.9,0-1.3c6.8-6.8,17.8-6.7,24.5,0c0.4,0.4,0.4,0.9,0,1.3c-0.4,0.4-0.9,0.4-1.3,0
			c-6.1-6.1-16-6.1-22.1,0C109.8,62.8,109.3,62.8,109,62.5z"/>
	</g>
	<path class="st2" d="M121.9,149.1L121.9,149.1c-2.2,0-3.9-1.8-3.9-3.9v-30.7c0-2.2,1.8-3.9,3.9-3.9l0,0c2.2,0,3.9,1.8,3.9,3.9v30.7
		C125.9,147.4,124.1,149.1,121.9,149.1z"/>
	<g>
		<path class="st1" d="M150,74c0-15.5-12.6-28.1-28.1-28.1c-2.9,0-5.7,0.4-8.4,1.3V0.9c0-0.4-0.2-0.7-0.5-0.8s-0.7-0.1-0.9,0.2l-4,4
			l-4-4c-0.3-0.3-0.9-0.3-1.2,0l-4,4l-4-4C94.6,0,94,0,93.7,0.3l-4,4l-4-4c-0.3-0.3-0.9-0.3-1.2,0l-4,4l-4-4c-0.3-0.3-0.9-0.3-1.2,0
			l-4,4l-4-4C67,0,66.4,0,66.1,0.3l-4,4l-4-4c-0.3-0.3-0.9-0.3-1.2,0l-4,4l-4-4C48.6,0,48,0,47.7,0.3l-4,4l-4-4
			c-0.3-0.3-0.9-0.3-1.2,0l-4,4l-4-4c-0.3-0.3-0.9-0.3-1.2,0l-4,4l-4-4C21,0,20.4,0,20,0.3c-0.2,0.2-0.3,0.4-0.3,0.6v40.7H0v67.8
			c0,6,4.8,10.8,10.8,10.8l0,0h91.9c6,0,10.8-4.9,10.8-10.8v-8.6c2.4,0.7,4.9,1.2,7.5,1.2v7.8c-2.2,0.4-3.9,2.4-3.9,4.7v30.7
			c0,2.7,2.2,4.8,4.8,4.8c2.7,0,4.8-2.2,4.8-4.8v-30.7c0-2.4-1.7-4.3-3.9-4.7V102C137.9,101.6,150,89.2,150,74z M1.7,109.4V43.3
			h18.2v66.1c0,5-4.1,9.1-9.1,9.1l0,0C5.8,118.5,1.7,114.4,1.7,109.4z M111.8,109.4c0,5-4.1,9.1-9.1,9.1h-86c3-1.9,5-5.3,5-9.1V2.9
			L24.9,6c0.3,0.3,0.9,0.3,1.2,0l4-4l4,4c0.3,0.3,0.9,0.3,1.2,0l4-4l4,4c0.3,0.3,0.9,0.3,1.2,0l4-4l4,4c0.3,0.3,0.9,0.3,1.2,0l4-4
			l4,4c0.3,0.3,0.9,0.3,1.2,0l4-4l4,4c0.3,0.3,0.9,0.3,1.2,0l4-4l4,4c0.3,0.3,0.9,0.3,1.2,0l4-4l4,4c0.3,0.3,0.9,0.3,1.2,0l4-4l4,4
			c0.3,0.3,0.9,0.3,1.2,0l4-4l4,4c0.3,0.3,0.9,0.3,1.2,0l3.1-3.1v44.8c-2,0.8-3.9,1.8-5.7,3H84.5v1.7h19.4c-1,0.8-1.9,1.8-2.8,2.8
			H84.4v1.7h15.1c-0.7,0.9-1.3,1.8-1.8,2.8H84.4v1.7h12.3c-1.3,2.6-2.2,5.3-2.6,8.2h-9.7v1.7H94c-0.1,0.8-0.1,1.6-0.1,2.5
			c0,0.1,0,0.2,0,0.3h-9.4V76H94c0.1,0.9,0.2,1.8,0.3,2.8h-9.8v1.7h10.2c2.2,9,8.7,16.4,17.2,19.7L111.8,109.4L111.8,109.4z
			 M125,145.2c0,1.7-1.4,3.1-3.1,3.1s-3.1-1.4-3.1-3.1v-3.1h6.2V145.2L125,145.2z M125,140.4h-6.2v-22.3h6.2V140.4z M125,114.5v1.8
			h-6.2v-1.8c0-1.7,1.4-3.1,3.1-3.1C123.6,111.5,125,112.8,125,114.5z M121.9,100.3c-14.5,0-26.3-11.8-26.3-26.3
			s11.8-26.3,26.3-26.3s26.3,11.8,26.3,26.3C148.3,88.5,136.5,100.3,121.9,100.3z"/>
		<path class="st1" d="M121.9,51.1C109.3,51.1,99,61.4,99,74s10.3,22.9,22.9,22.9s22.9-10.3,22.9-22.9S134.6,51.1,121.9,51.1z
			 M121.9,95.1c-11.7,0-21.2-9.5-21.2-21.2s9.5-21.2,21.2-21.2s21.2,9.5,21.2,21.2S133.6,95.1,121.9,95.1z"/>
	</g>
	<g>
		<circle class="st2" cx="131" cy="30.6" r="3.6"/>
	</g>
	<g>
		<circle class="st5" cx="103.5" cy="131.6" r="3.6"/>
	</g>
	<g>
		<circle class="st4" cx="5.7" cy="6.1" r="2.4"/>
	</g>
	<g>
		<circle class="st2" cx="8.3" cy="128.9" r="2.7"/>
	</g>
</g>
</svg>
