<svg id="Layer_1" data-name="Layer 1" xmlns="http://www.w3.org/2000/svg" viewBox="0 0 150 149.96"><defs><style>.cls-1{fill:#fff;}.cls-2{fill:#231f20;}.cls-3{fill:#e6e9ee;}.cls-4{fill:#84dbff;}.cls-5{fill:#ff7058;}.cls-6{fill:#ffd05b;}.cls-7{fill:#24292f;fill-rule:evenodd;}</style></defs><rect class="cls-1" x="27.2" y="129.86" width="57.4" height="8.2"/><polygon class="cls-1" points="84.6 138.06 94.2 133.96 84.6 129.86 84.6 138.06"/><path class="cls-1" d="M18.1,136.8v-5.7a1.22,1.22,0,0,1,1.2-1.2h7.9v8.2H19.3A1.24,1.24,0,0,1,18.1,136.8Z" transform="translate(0 -0.04)"/><path class="cls-2" d="M94.6,133.2,85,129.1a.6.6,0,0,0-.4-.1H19.3a2.05,2.05,0,0,0-2.1,2.1v5.7a2.05,2.05,0,0,0,2.1,2.1H84.6a.37.37,0,0,0,.3-.1l9.6-4.1a.79.79,0,0,0,.5-.8C95,133.5,94.9,133.3,94.6,133.2Zm-10.9-2.5v2.4H28.1v-2.4Zm-57.4,6.5h-7a.43.43,0,0,1-.4-.4v-5.7a.43.43,0,0,1,.4-.4h7Zm1.8-2.4H83.7v2.4H28.1Zm57.4,1.9v-5.6L92,134Z" transform="translate(0 -0.04)"/><path class="cls-2" d="M140.5,14.7a.86.86,0,0,1-.6-.3.91.91,0,0,1,0-1.2l1.5-1.5a.85.85,0,0,1,1.2,1.2l-1.5,1.5A.86.86,0,0,1,140.5,14.7Z" transform="translate(0 -0.04)"/><path class="cls-2" d="M135.8,19.3a.86.86,0,0,1-.6-.3.91.91,0,0,1,0-1.2l1.5-1.5a.85.85,0,1,1,1.2,1.2L136.4,19A.86.86,0,0,1,135.8,19.3Z" transform="translate(0 -0.04)"/><path class="cls-2" d="M141.9,19.3a.86.86,0,0,1-.6-.3l-1.5-1.5a.85.85,0,1,1,1.2-1.2l1.5,1.5a.91.91,0,0,1,0,1.2A.6.6,0,0,1,141.9,19.3Z" transform="translate(0 -0.04)"/><path class="cls-2" d="M137.3,14.7a.86.86,0,0,1-.6-.3l-1.5-1.5a.85.85,0,0,1,1.2-1.2l1.5,1.5a.91.91,0,0,1,0,1.2A.86.86,0,0,1,137.3,14.7Z" transform="translate(0 -0.04)"/><path class="cls-2" d="M140.5,112.9a.86.86,0,0,1-.6-.3.91.91,0,0,1,0-1.2l1.5-1.5a.85.85,0,0,1,1.2,1.2l-1.5,1.5A.6.6,0,0,1,140.5,112.9Z" transform="translate(0 -0.04)"/><path class="cls-2" d="M135.8,117.6a.86.86,0,0,1-.6-.3.91.91,0,0,1,0-1.2l1.5-1.5a.85.85,0,1,1,1.2,1.2l-1.5,1.5A.86.86,0,0,1,135.8,117.6Z" transform="translate(0 -0.04)"/><path class="cls-2" d="M141.9,117.6a.86.86,0,0,1-.6-.3l-1.5-1.5a.85.85,0,1,1,1.2-1.2l1.5,1.5a.91.91,0,0,1,0,1.2A.6.6,0,0,1,141.9,117.6Z" transform="translate(0 -0.04)"/><path class="cls-2" d="M137.3,112.9a.86.86,0,0,1-.6-.3l-1.5-1.5a.85.85,0,0,1,1.2-1.2l1.5,1.5a.91.91,0,0,1,0,1.2A.6.6,0,0,1,137.3,112.9Z" transform="translate(0 -0.04)"/><path class="cls-2" d="M5.9,19.9a.86.86,0,0,1-.6-.3.91.91,0,0,1,0-1.2l1.5-1.5a.91.91,0,0,1,1.2,0,.91.91,0,0,1,0,1.2L6.5,19.6A.6.6,0,0,1,5.9,19.9Z" transform="translate(0 -0.04)"/><path class="cls-2" d="M1.3,24.6a.86.86,0,0,1-.6-.3.91.91,0,0,1,0-1.2l1.5-1.5a.91.91,0,0,1,1.2,0,.91.91,0,0,1,0,1.2L1.9,24.3A.86.86,0,0,1,1.3,24.6Z" transform="translate(0 -0.04)"/><path class="cls-2" d="M7.4,24.6a.86.86,0,0,1-.6-.3L5.3,22.8a.91.91,0,0,1,0-1.2.82.82,0,0,1,1.2,0L8,23.1a.91.91,0,0,1,0,1.2A.71.71,0,0,1,7.4,24.6Z" transform="translate(0 -0.04)"/><path class="cls-2" d="M2.8,19.9a.86.86,0,0,1-.6-.3L.7,18.1a.91.91,0,0,1,0-1.2.91.91,0,0,1,1.2,0l1.5,1.5a.91.91,0,0,1,0,1.2A.86.86,0,0,1,2.8,19.9Z" transform="translate(0 -0.04)"/><path class="cls-1" d="M108.1,5.5,112.7.9V109.5a10,10,0,0,1-10,10H10.8a10,10,0,0,0,10-10V.9h0l4.6,4.6L30,.9l4.6,4.6L39.2.9l4.6,4.6L48.4.9,53,5.5,57.6.9l4.6,4.6L66.8.9l4.6,4.6L76,.9l4.6,4.6L85.2.9l4.6,4.6L94.4.9,99,5.5,103.6.9Z" transform="translate(0 -0.04)"/><path class="cls-1" d="M.9,42.4v67a10,10,0,0,0,20,0v-67Z" transform="translate(0 -0.04)"/><path class="cls-3" d="M10.8,115.9a6.49,6.49,0,0,1-6.5-6.5V45.9h13v63.5A6.49,6.49,0,0,1,10.8,115.9Z" transform="translate(0 -0.04)"/><rect class="cls-2" x="56.2" y="50.76" width="21.5" height="1.7"/><rect class="cls-2" x="56.2" y="55.26" width="21.5" height="1.7"/><rect class="cls-2" x="56.2" y="59.76" width="21.5" height="1.7"/><path class="cls-2" d="M91.6,66.5H90.4V64.8h1.2Zm-3.5,0H86.9V64.8h1.2Zm-3.5,0H83.4V64.8h1.2Zm-3.5,0H80V64.8h1.2l-.1,1.7Zm-3.4,0H76.5V64.8h1.2Zm-3.5,0H73V64.8h1.2Zm-3.5,0H69.5V64.8h1.2Zm-3.5,0H66V64.8h1.2Zm-3.4,0H62.6V64.8h1.2Zm-3.5,0H59.1V64.8h1.2Zm-3.5,0H55.6V64.8h1.2Zm-3.5,0H52.1V64.8h1.2Zm-3.4,0H48.7V64.8h1.2Zm-3.5,0H45.2V64.8h1.2Zm-3.5,0H41.7V64.8h1.2Zm-3.4,0H38.3V64.8h1.2Zm-3.5,0H34.8V64.8H36Zm-3.5,0H31.3V64.8h1.2Zm-3.5,0H27.8V64.8H29Z" transform="translate(0 -0.04)"/><rect class="cls-2" x="27.9" y="21.46" width="78" height="1.7"/><rect class="cls-2" x="56.2" y="69.76" width="21.5" height="1.7"/><rect class="cls-2" x="56.2" y="74.26" width="21.5" height="1.7"/><rect class="cls-2" x="56.2" y="78.76" width="21.5" height="1.7"/><rect class="cls-2" x="84.4" y="28.36" width="21.5" height="1.7"/><rect class="cls-2" x="84.4" y="32.86" width="21.5" height="1.7"/><rect class="cls-2" x="84.4" y="37.36" width="21.5" height="1.7"/><rect class="cls-2" x="84.4" y="41.86" width="21.5" height="1.7"/><rect class="cls-2" x="84.4" y="46.26" width="21.5" height="1.7"/><rect class="cls-2" x="28.1" y="50.76" width="21" height="1.7"/><rect class="cls-2" x="28.1" y="55.26" width="21" height="1.7"/><rect class="cls-2" x="28.1" y="59.76" width="21" height="1.7"/><rect class="cls-2" x="28.1" y="69.76" width="21" height="1.7"/><rect class="cls-2" x="28.1" y="74.26" width="21" height="1.7"/><rect class="cls-2" x="28.1" y="78.76" width="21" height="1.7"/><rect class="cls-2" x="28.1" y="83.16" width="21" height="1.7"/><rect class="cls-2" x="28.1" y="87.66" width="21" height="1.7"/><rect class="cls-2" x="28.1" y="92.16" width="21" height="1.7"/><rect class="cls-2" x="28.1" y="96.66" width="21" height="1.7"/><rect class="cls-2" x="28.1" y="101.16" width="21" height="1.7"/><rect class="cls-4" x="27.4" y="28.46" width="51" height="18.6"/><rect class="cls-3" x="48.7" y="12.11" width="56.8" height="3.93"/><rect class="cls-5" x="56.2" y="84.06" width="49.8" height="18"/><circle class="cls-1" cx="121.9" cy="73.96" r="27.2"/><circle class="cls-4" cx="121.9" cy="73.96" r="22"/><path class="cls-4" d="M105.5,74A16.52,16.52,0,0,1,122,57.5" transform="translate(0 -0.04)"/><path class="cls-1" d="M109,62.5a.85.85,0,0,1,0-1.3,17.35,17.35,0,0,1,24.5,0,.92.92,0,0,1-1.3,1.3,15.63,15.63,0,0,0-22.1,0A.78.78,0,0,1,109,62.5Z" transform="translate(0 -0.04)"/><path class="cls-3" d="M121.9,149.1h0a3.9,3.9,0,0,1-3.9-3.9V114.5a3.9,3.9,0,0,1,3.9-3.9h0a3.9,3.9,0,0,1,3.9,3.9v30.7A3.78,3.78,0,0,1,121.9,149.1Z" transform="translate(0 -0.04)"/><path class="cls-2" d="M150,74a28.12,28.12,0,0,0-28.1-28.1,26.35,26.35,0,0,0-8.4,1.3V.9a.79.79,0,0,0-.5-.8.76.76,0,0,0-.9.2l-4,4-4-4a.91.91,0,0,0-1.2,0l-4,4-4-4a.91.91,0,0,0-1.2,0l-4,4-4-4a.91.91,0,0,0-1.2,0l-4,4-4-4a.91.91,0,0,0-1.2,0l-4,4-4-4a.91.91,0,0,0-1.2,0l-4,4-4-4a.91.91,0,0,0-1.2,0l-4,4-4-4a.91.91,0,0,0-1.2,0l-4,4-4-4a.91.91,0,0,0-1.2,0l-4,4-4-4a.91.91,0,0,0-1.2,0l-4,4-4-4A1,1,0,0,0,20,.3a.86.86,0,0,0-.3.6V41.6H0v67.8a10.76,10.76,0,0,0,10.8,10.8h91.9a10.82,10.82,0,0,0,10.8-10.8v-8.6A26.74,26.74,0,0,0,121,102v7.8a4.82,4.82,0,0,0-3.9,4.7v30.7a4.8,4.8,0,0,0,9.6,0V114.5a4.74,4.74,0,0,0-3.9-4.7V102A28,28,0,0,0,150,74ZM1.7,109.4V43.3H19.9v66.1a9.13,9.13,0,0,1-9.1,9.1h0A9.13,9.13,0,0,1,1.7,109.4Zm110.1,0a9.13,9.13,0,0,1-9.1,9.1h-86a10.8,10.8,0,0,0,5-9.1V2.9L24.9,6a.91.91,0,0,0,1.2,0l4-4,4,4a.91.91,0,0,0,1.2,0l4-4,4,4a.91.91,0,0,0,1.2,0l4-4,4,4a.91.91,0,0,0,1.2,0l4-4,4,4a.91.91,0,0,0,1.2,0l4-4,4,4a.91.91,0,0,0,1.2,0l4-4,4,4a.91.91,0,0,0,1.2,0l4-4,4,4a.91.91,0,0,0,1.2,0l4-4,4,4a.91.91,0,0,0,1.2,0l4-4,4,4a.91.91,0,0,0,1.2,0L112,2.9V47.7a31,31,0,0,0-5.7,3H84.5v1.7h19.4a24.67,24.67,0,0,0-2.8,2.8H84.4v1.7H99.5a16.65,16.65,0,0,0-1.8,2.8H84.4v1.7H96.7a26.18,26.18,0,0,0-2.6,8.2H84.4v1.7H94a20.08,20.08,0,0,0-.1,2.5v.3H84.5V76H94c.1.9.2,1.8.3,2.8H84.5v1.7H94.7a28.43,28.43,0,0,0,17.2,19.7l-.1,9.2ZM125,145.2a3.1,3.1,0,0,1-6.2,0v-3.1H125v3.1Zm0-4.8h-6.2V118.1H125Zm0-25.9v1.8h-6.2v-1.8a3.12,3.12,0,0,1,3.1-3.1A3.18,3.18,0,0,1,125,114.5Zm-3.1-14.2A26.3,26.3,0,1,1,148.2,74,26.33,26.33,0,0,1,121.9,100.3Z" transform="translate(0 -0.04)"/><path class="cls-2" d="M121.9,51.1A22.9,22.9,0,1,0,144.8,74,23,23,0,0,0,121.9,51.1Zm0,44a21.2,21.2,0,1,1,21.2-21.2A21.21,21.21,0,0,1,121.9,95.1Z" transform="translate(0 -0.04)"/><circle class="cls-3" cx="131" cy="30.56" r="3.6"/><circle class="cls-6" cx="103.5" cy="131.56" r="3.6"/><circle class="cls-5" cx="5.7" cy="6.06" r="2.4"/><circle class="cls-3" cx="8.3" cy="128.86" r="2.7"/><path class="cls-7" d="M33.46,8.27a6.11,6.11,0,0,0-1.92,11.89c.3.06.41-.13.41-.29s0-.63,0-1.14c-1.68.37-2-.72-2-.72a1.54,1.54,0,0,0-.68-.89c-.55-.37,0-.37,0-.37a1.27,1.27,0,0,1,.94.62,1.28,1.28,0,0,0,1.76.51,1.29,1.29,0,0,1,.38-.82,2.68,2.68,0,0,1-2.75-3,2.41,2.41,0,0,1,.62-1.64,2.21,2.21,0,0,1,.06-1.61s.51-.17,1.66.62a5.92,5.92,0,0,1,1.52-.2,5.85,5.85,0,0,1,1.51.2c1.15-.79,1.66-.62,1.66-.62a2.21,2.21,0,0,1,.06,1.61,2.36,2.36,0,0,1,.62,1.64,2.69,2.69,0,0,1-2.76,3A1.44,1.44,0,0,1,35,18.19c0,.82,0,1.47,0,1.68s.11.35.41.29a6.11,6.11,0,0,0-1.9-11.89Z" transform="translate(0 -0.04)"/><circle class="cls-1" cx="115.08" cy="69.05" r="4.79"/><path d="M115.12,63.41a5.45,5.45,0,0,1,5.51,5.5,5.21,5.21,0,0,1-1.57,3.86,5.43,5.43,0,0,1-3.94,1.64,5.53,5.53,0,0,1-5.49-5.5A5.4,5.4,0,0,1,111.25,65,5.27,5.27,0,0,1,115.12,63.41Zm0,1A4.26,4.26,0,0,0,112,65.72a4.42,4.42,0,0,0-1.35,3.19,4.58,4.58,0,0,0,4.52,4.5,4.41,4.41,0,0,0,3.2-1.35,4.2,4.2,0,0,0,1.3-3.15,4.51,4.51,0,0,0-4.5-4.51Zm1.47,3.15V69.8H116v2.67h-1.71V69.8h-.62V67.55a.33.33,0,0,1,.1-.25.34.34,0,0,1,.25-.11h2.26a.34.34,0,0,1,.24.11A.31.31,0,0,1,116.61,67.55Zm-2.25-1.42a.68.68,0,0,1,.77-.77.77.77,0,0,1,0,1.54A.68.68,0,0,1,114.36,66.13Z" transform="translate(0 -0.04)"/><ellipse class="cls-1" cx="115.17" cy="81.09" rx="4.58" ry="4.53"/><path d="M115.12,75.59a5.34,5.34,0,0,1,3.93,1.61A5.49,5.49,0,0,1,120.23,79a5.79,5.79,0,0,1,.4,2.12,5.47,5.47,0,0,1-.4,2.11A5.13,5.13,0,0,1,119.06,85a5.87,5.87,0,0,1-1.83,1.22,5.48,5.48,0,0,1-2.11.42,5.34,5.34,0,0,1-2.09-.42,5.65,5.65,0,0,1-3-3,5.48,5.48,0,0,1-.41-2.09,5.5,5.5,0,0,1,1.63-3.9A5.18,5.18,0,0,1,115.12,75.59Zm0,1A4.23,4.23,0,0,0,112,77.9a4.52,4.52,0,0,0-1,1.47,4.41,4.41,0,0,0-.35,1.72,4.31,4.31,0,0,0,.35,1.7,4.41,4.41,0,0,0,1,1.47,4.75,4.75,0,0,0,1.46,1,4.5,4.5,0,0,0,1.71.34,4.4,4.4,0,0,0,1.71-.35,4.77,4.77,0,0,0,1.5-1,4.22,4.22,0,0,0,1.29-3.15,4.56,4.56,0,0,0-.34-1.73,4.25,4.25,0,0,0-1-1.45A4.33,4.33,0,0,0,115.14,76.58Zm-.07,3.59-.74.39a.74.74,0,0,0-.29-.35.68.68,0,0,0-.32-.09c-.49,0-.73.32-.73,1a1.21,1.21,0,0,0,.18.7.63.63,0,0,0,.55.27.7.7,0,0,0,.68-.47l.68.34a1.68,1.68,0,0,1-.6.64,1.66,1.66,0,0,1-.84.23,1.57,1.57,0,0,1-1.19-.46,1.93,1.93,0,0,1,0-2.5,1.56,1.56,0,0,1,1.16-.46A1.54,1.54,0,0,1,115.07,80.17Zm3.17,0-.73.39a.69.69,0,0,0-.29-.35.68.68,0,0,0-.32-.09c-.5,0-.74.32-.74,1a1.14,1.14,0,0,0,.19.7.61.61,0,0,0,.55.27.68.68,0,0,0,.67-.47l.69.34a1.7,1.7,0,0,1-.61.64,1.72,1.72,0,0,1-2-.23,1.73,1.73,0,0,1-.44-1.25,1.71,1.71,0,0,1,.45-1.25,1.56,1.56,0,0,1,1.16-.46A1.51,1.51,0,0,1,118.24,80.17Z" transform="translate(0 -0.04)"/><circle class="cls-1" cx="127.37" cy="68.94" r="5.08"/><path d="M127.36,63.41a5.45,5.45,0,0,1,5.51,5.5,5.19,5.19,0,0,1-1.57,3.86,5.45,5.45,0,0,1-3.94,1.64,5.55,5.55,0,0,1-5.49-5.5A5.39,5.39,0,0,1,123.49,65,5.27,5.27,0,0,1,127.36,63.41Zm-4.25,4a4.48,4.48,0,0,0-.25,1.49,4.32,4.32,0,0,0,1.34,3.16,4.41,4.41,0,0,0,3.18,1.33,4.35,4.35,0,0,0,3.2-1.35,4.11,4.11,0,0,0,.76-1l-2.07-.93a1.45,1.45,0,0,1-.53.85,1.8,1.8,0,0,1-1,.38v.85h-.63v-.85a2.47,2.47,0,0,1-1.67-.66l.75-.76a1.78,1.78,0,0,0,1.23.5.88.88,0,0,0,.49-.13.46.46,0,0,0,.2-.42.43.43,0,0,0-.15-.34l-.53-.22-.65-.3-.87-.38Zm4.27-3a4.24,4.24,0,0,0-3.17,1.33,4.91,4.91,0,0,0-.61.73l2.1.94a1.36,1.36,0,0,1,.52-.69,1.81,1.81,0,0,1,.9-.29v-.84h.64v.84a2.48,2.48,0,0,1,1.37.51l-.72.74a1.59,1.59,0,0,0-.94-.32,1.14,1.14,0,0,0-.46.09.36.36,0,0,0-.2.34.3.3,0,0,0,0,.14l.7.31.48.22.88.39,2.82,1.26a5.21,5.21,0,0,0,.14-1.18,4.52,4.52,0,0,0-4.5-4.52Z" transform="translate(0 -0.04)"/><circle class="cls-1" cx="127.38" cy="81.06" r="4.99"/><path d="M127.36,75.63a5.35,5.35,0,0,1,3.91,1.6,5.55,5.55,0,0,1,0,7.77,5.42,5.42,0,0,1-3.94,1.63A5.35,5.35,0,0,1,123.49,85a5.29,5.29,0,0,1-1.62-3.88,5.38,5.38,0,0,1,1.62-3.9A5.31,5.31,0,0,1,127.36,75.63Zm0,1A4.27,4.27,0,0,0,124.21,78a4.38,4.38,0,0,0-1.35,3.18,4.56,4.56,0,0,0,4.52,4.5,4.42,4.42,0,0,0,3.2-1.34,4.2,4.2,0,0,0,1.3-3.16,4.52,4.52,0,0,0-4.5-4.51Zm2.07,3.22v.94h-4v-.94Zm0,1.76v1h-4v-1Z" transform="translate(0 -0.04)"/></svg>